<svg width="46" height="46" viewBox="0 0 46 46" fill="none" xmlns="http://www.w3.org/2000/svg">
<path d="M23 0.5C28.5459 0.5 31.43 0.495026 33.79 1.21094L34.2803 1.36816C39.3181 3.06945 43.2393 7.10145 44.7891 12.21L44.915 12.6592C45.5044 14.941 45.5 17.8005 45.5 23C45.5 28.1995 45.5044 31.059 44.915 33.3408L44.7891 33.79C43.2393 38.8985 39.3181 42.9306 34.2803 44.6318L33.79 44.7891C31.43 45.505 28.5459 45.5 23 45.5C17.8005 45.5 14.941 45.5044 12.6592 44.915L12.21 44.7891C7.10145 43.2393 3.06945 39.3181 1.36816 34.2803L1.21094 33.79C0.495026 31.43 0.5 28.5459 0.5 23C0.5 17.4541 0.495026 14.57 1.21094 12.21L1.36816 11.7197C3.06945 6.68185 7.10145 2.76074 12.21 1.21094L12.6592 1.08496C14.941 0.495566 17.8005 0.5 23 0.5Z" fill="#808080" fill-opacity="0.1" style="mix-blend-mode:luminosity"/>
<path d="M23 0.5C28.5459 0.5 31.43 0.495026 33.79 1.21094L34.2803 1.36816C39.3181 3.06945 43.2393 7.10145 44.7891 12.21L44.915 12.6592C45.5044 14.941 45.5 17.8005 45.5 23C45.5 28.1995 45.5044 31.059 44.915 33.3408L44.7891 33.79C43.2393 38.8985 39.3181 42.9306 34.2803 44.6318L33.79 44.7891C31.43 45.505 28.5459 45.5 23 45.5C17.8005 45.5 14.941 45.5044 12.6592 44.915L12.21 44.7891C7.10145 43.2393 3.06945 39.3181 1.36816 34.2803L1.21094 33.79C0.495026 31.43 0.5 28.5459 0.5 23C0.5 17.4541 0.495026 14.57 1.21094 12.21L1.36816 11.7197C3.06945 6.68185 7.10145 2.76074 12.21 1.21094L12.6592 1.08496C14.941 0.495566 17.8005 0.5 23 0.5Z" stroke="url(#paint0_linear_14448_16031)"/>
<path d="M24.0271 13.0007C25.1525 13.0026 25.7228 13.0086 26.2156 13.0232L26.4097 13.0296C26.6339 13.0375 26.8551 13.0475 27.1218 13.06C28.1859 13.1092 28.9118 13.2775 29.5493 13.525C30.2084 13.7792 30.7651 14.1225 31.3209 14.6784C31.8759 15.2342 32.2193 15.7925 32.4743 16.45C32.7209 17.0867 32.8893 17.8134 32.9393 18.8775C32.9512 19.1442 32.9608 19.3654 32.9687 19.5896L32.975 19.7837C32.9896 20.2765 32.9963 20.8469 32.9984 21.9723L32.9992 22.7179C32.9993 22.809 32.9993 22.903 32.9993 23L32.9992 23.2821L32.9986 24.0278C32.9967 25.1532 32.9908 25.7236 32.9761 26.2163L32.9697 26.4104C32.9618 26.6347 32.9518 26.8559 32.9393 27.1225C32.8901 28.1867 32.7209 28.9125 32.4743 29.55C32.2201 30.2092 31.8759 30.7659 31.3209 31.3217C30.7651 31.8767 30.2059 32.22 29.5493 32.475C28.9118 32.7217 28.1859 32.89 27.1218 32.94C26.8551 32.9519 26.6339 32.9616 26.4097 32.9694L26.2156 32.9757C25.7228 32.9904 25.1525 32.997 24.0271 32.9992L23.2814 33C23.1903 33 23.0963 33 22.9993 33H22.7172L21.9715 32.9993C20.8461 32.9975 20.2757 32.9915 19.783 32.9768L19.5889 32.9705C19.3647 32.9625 19.1435 32.9525 18.8768 32.94C17.8126 32.8909 17.0876 32.7217 16.4493 32.475C15.791 32.2209 15.2335 31.8767 14.6776 31.3217C14.1218 30.7659 13.7793 30.2067 13.5243 29.55C13.2768 28.9125 13.1093 28.1867 13.0593 27.1225C13.0474 26.8559 13.0377 26.6347 13.0299 26.4104L13.0236 26.2163C13.009 25.7236 13.0023 25.1532 13.0001 24.0278L13 21.9723C13.0019 20.8469 13.0078 20.2765 13.0225 19.7837L13.0288 19.5896C13.0368 19.3654 13.0468 19.1442 13.0593 18.8775C13.1085 17.8125 13.2768 17.0875 13.5243 16.45C13.7785 15.7917 14.1218 15.2342 14.6776 14.6784C15.2335 14.1225 15.7918 13.78 16.4493 13.525C17.0868 13.2775 17.8118 13.11 18.8768 13.06C19.1435 13.0482 19.3647 13.0385 19.5889 13.0306L19.783 13.0243C20.2757 13.0097 20.8461 13.003 21.9715 13.0009L24.0271 13.0007ZM22.9993 18C20.2364 18 17.9993 20.2396 17.9993 23C17.9993 25.7629 20.2388 28 22.9993 28C25.7622 28 27.9993 25.7605 27.9993 23C27.9993 20.2371 25.7597 18 22.9993 18ZM22.9993 20C24.6562 20 25.9993 21.3427 25.9993 23C25.9993 24.6569 24.6566 26 22.9993 26C21.3424 26 19.9993 24.6574 19.9993 23C19.9993 21.3431 21.3419 20 22.9993 20ZM28.2493 16.5C27.56 16.5 26.9993 17.0599 26.9993 17.7492C26.9993 18.4384 27.5592 18.9992 28.2493 18.9992C28.9385 18.9992 29.4993 18.4393 29.4993 17.7492C29.4993 17.0599 28.9376 16.4992 28.2493 16.5Z" fill="white"/>
<defs>
<linearGradient id="paint0_linear_14448_16031" x1="1" y1="23" x2="44.9464" y2="24.535" gradientUnits="userSpaceOnUse">
<stop stop-color="white" stop-opacity="0.1"/>
<stop offset="0.505" stop-color="white" stop-opacity="0.4"/>
<stop offset="1" stop-color="white" stop-opacity="0.1"/>
</linearGradient>
</defs>
</svg>
