<svg width="46" height="46" viewBox="0 0 46 46" fill="none" xmlns="http://www.w3.org/2000/svg">
<path d="M23 0.5C28.5459 0.5 31.43 0.495026 33.79 1.21094L34.2803 1.36816C39.3181 3.06945 43.2393 7.10145 44.7891 12.21L44.915 12.6592C45.5044 14.941 45.5 17.8005 45.5 23C45.5 28.1995 45.5044 31.059 44.915 33.3408L44.7891 33.79C43.2393 38.8985 39.3181 42.9306 34.2803 44.6318L33.79 44.7891C31.43 45.505 28.5459 45.5 23 45.5C17.8005 45.5 14.941 45.5044 12.6592 44.915L12.21 44.7891C7.10145 43.2393 3.06945 39.3181 1.36816 34.2803L1.21094 33.79C0.495026 31.43 0.5 28.5459 0.5 23C0.5 17.4541 0.495026 14.57 1.21094 12.21L1.36816 11.7197C3.06945 6.68185 7.10145 2.76074 12.21 1.21094L12.6592 1.08496C14.941 0.495566 17.8005 0.5 23 0.5Z" fill="#808080" fill-opacity="0.1" style="mix-blend-mode:luminosity"/>
<path d="M23 0.5C28.5459 0.5 31.43 0.495026 33.79 1.21094L34.2803 1.36816C39.3181 3.06945 43.2393 7.10145 44.7891 12.21L44.915 12.6592C45.5044 14.941 45.5 17.8005 45.5 23C45.5 28.1995 45.5044 31.059 44.915 33.3408L44.7891 33.79C43.2393 38.8985 39.3181 42.9306 34.2803 44.6318L33.79 44.7891C31.43 45.505 28.5459 45.5 23 45.5C17.8005 45.5 14.941 45.5044 12.6592 44.915L12.21 44.7891C7.10145 43.2393 3.06945 39.3181 1.36816 34.2803L1.21094 33.79C0.495026 31.43 0.5 28.5459 0.5 23C0.5 17.4541 0.495026 14.57 1.21094 12.21L1.36816 11.7197C3.06945 6.68185 7.10145 2.76074 12.21 1.21094L12.6592 1.08496C14.941 0.495566 17.8005 0.5 23 0.5Z" stroke="url(#paint0_linear_13312_48158)"/>
<path d="M13.0488 14L20.7705 24.3247L13 32.7192H14.7488L21.5519 25.3697L27.0486 32.7192H33L24.8438 21.8137L32.0765 14H30.3277L24.0624 20.7687L19.0001 14H13.0488ZM15.6206 15.2882H18.3546L30.4278 31.4308H27.6937L15.6206 15.2882Z" fill="white"/>
<defs>
<linearGradient id="paint0_linear_13312_48158" x1="1" y1="23" x2="44.9464" y2="24.535" gradientUnits="userSpaceOnUse">
<stop stop-color="white" stop-opacity="0.1"/>
<stop offset="0.505" stop-color="white" stop-opacity="0.4"/>
<stop offset="1" stop-color="white" stop-opacity="0.1"/>
</linearGradient>
</defs>
</svg>
