<svg width="46" height="46" viewBox="0 0 46 46" fill="none" xmlns="http://www.w3.org/2000/svg">
<path d="M23 0.5C28.5459 0.5 31.43 0.495026 33.79 1.21094L34.2803 1.36816C39.3181 3.06945 43.2393 7.10145 44.7891 12.21L44.915 12.6592C45.5044 14.941 45.5 17.8005 45.5 23C45.5 28.1995 45.5044 31.059 44.915 33.3408L44.7891 33.79C43.2393 38.8985 39.3181 42.9306 34.2803 44.6318L33.79 44.7891C31.43 45.505 28.5459 45.5 23 45.5C17.8005 45.5 14.941 45.5044 12.6592 44.915L12.21 44.7891C7.10145 43.2393 3.06945 39.3181 1.36816 34.2803L1.21094 33.79C0.495026 31.43 0.5 28.5459 0.5 23C0.5 17.4541 0.495026 14.57 1.21094 12.21L1.36816 11.7197C3.06945 6.68185 7.10145 2.76074 12.21 1.21094L12.6592 1.08496C14.941 0.495566 17.8005 0.5 23 0.5Z" fill="#808080" fill-opacity="0.1" style="mix-blend-mode:luminosity"/>
<path d="M23 0.5C28.5459 0.5 31.43 0.495026 33.79 1.21094L34.2803 1.36816C39.3181 3.06945 43.2393 7.10145 44.7891 12.21L44.915 12.6592C45.5044 14.941 45.5 17.8005 45.5 23C45.5 28.1995 45.5044 31.059 44.915 33.3408L44.7891 33.79C43.2393 38.8985 39.3181 42.9306 34.2803 44.6318L33.79 44.7891C31.43 45.505 28.5459 45.5 23 45.5C17.8005 45.5 14.941 45.5044 12.6592 44.915L12.21 44.7891C7.10145 43.2393 3.06945 39.3181 1.36816 34.2803L1.21094 33.79C0.495026 31.43 0.5 28.5459 0.5 23C0.5 17.4541 0.495026 14.57 1.21094 12.21L1.36816 11.7197C3.06945 6.68185 7.10145 2.76074 12.21 1.21094L12.6592 1.08496C14.941 0.495566 17.8005 0.5 23 0.5Z" stroke="url(#paint0_linear_13312_48173)"/>
<path d="M23.244 15C23.778 15.003 25.114 15.016 26.534 15.073L27.038 15.095C28.467 15.162 29.895 15.278 30.604 15.475C31.549 15.741 32.291 16.515 32.542 17.497C32.942 19.057 32.992 22.099 32.998 22.836L32.999 22.988V23.162C32.992 23.899 32.942 26.942 32.542 28.501C32.288 29.486 31.545 30.261 30.604 30.523C29.895 30.72 28.467 30.836 27.038 30.903L26.534 30.926C25.114 30.982 23.778 30.996 23.244 30.998L23.009 30.999H22.754C21.624 30.992 16.898 30.941 15.394 30.523C14.45 30.257 13.707 29.483 13.456 28.501C13.056 26.941 13.006 23.899 13 23.162V22.836C13.006 22.099 13.056 19.056 13.456 17.497C13.71 16.512 14.453 15.737 15.395 15.476C16.898 15.057 21.625 15.006 22.755 15H23.244ZM20.999 19.5V26.5L26.999 23L20.999 19.5Z" fill="white"/>
<defs>
<linearGradient id="paint0_linear_13312_48173" x1="1" y1="23" x2="44.9464" y2="24.535" gradientUnits="userSpaceOnUse">
<stop stop-color="white" stop-opacity="0.1"/>
<stop offset="0.505" stop-color="white" stop-opacity="0.4"/>
<stop offset="1" stop-color="white" stop-opacity="0.1"/>
</linearGradient>
</defs>
</svg>
