<svg width="46" height="46" viewBox="0 0 46 46" fill="none" xmlns="http://www.w3.org/2000/svg">
<path d="M23 0.5C28.5459 0.5 31.43 0.495026 33.79 1.21094L34.2803 1.36816C39.3181 3.06945 43.2393 7.10145 44.7891 12.21L44.915 12.6592C45.5044 14.941 45.5 17.8005 45.5 23C45.5 28.1995 45.5044 31.059 44.915 33.3408L44.7891 33.79C43.2393 38.8985 39.3181 42.9306 34.2803 44.6318L33.79 44.7891C31.43 45.505 28.5459 45.5 23 45.5C17.8005 45.5 14.941 45.5044 12.6592 44.915L12.21 44.7891C7.10145 43.2393 3.06945 39.3181 1.36816 34.2803L1.21094 33.79C0.495026 31.43 0.5 28.5459 0.5 23C0.5 17.4541 0.495026 14.57 1.21094 12.21L1.36816 11.7197C3.06945 6.68185 7.10145 2.76074 12.21 1.21094L12.6592 1.08496C14.941 0.495566 17.8005 0.5 23 0.5Z" fill="#808080" fill-opacity="0.1" style="mix-blend-mode:luminosity"/>
<path d="M23 0.5C28.5459 0.5 31.43 0.495026 33.79 1.21094L34.2803 1.36816C39.3181 3.06945 43.2393 7.10145 44.7891 12.21L44.915 12.6592C45.5044 14.941 45.5 17.8005 45.5 23C45.5 28.1995 45.5044 31.059 44.915 33.3408L44.7891 33.79C43.2393 38.8985 39.3181 42.9306 34.2803 44.6318L33.79 44.7891C31.43 45.505 28.5459 45.5 23 45.5C17.8005 45.5 14.941 45.5044 12.6592 44.915L12.21 44.7891C7.10145 43.2393 3.06945 39.3181 1.36816 34.2803L1.21094 33.79C0.495026 31.43 0.5 28.5459 0.5 23C0.5 17.4541 0.495026 14.57 1.21094 12.21L1.36816 11.7197C3.06945 6.68185 7.10145 2.76074 12.21 1.21094L12.6592 1.08496C14.941 0.495566 17.8005 0.5 23 0.5Z" stroke="url(#paint0_linear_14448_16034)"/>
<path d="M13.1485 22.8099C18.3959 20.5237 21.895 19.0165 23.6457 18.2883C28.6445 16.2092 29.6832 15.848 30.3602 15.8361C30.5091 15.8334 30.8421 15.8703 31.0577 16.0453C31.2398 16.1931 31.2899 16.3927 31.3139 16.5328C31.3379 16.6729 31.3677 16.992 31.344 17.2414C31.0731 20.0876 29.901 26.9947 29.3047 30.1825C29.0524 31.5314 28.5556 31.9836 28.0746 32.0279C27.0293 32.1241 26.2355 31.3371 25.2231 30.6735C23.6389 29.635 22.7439 28.9885 21.2061 27.9751C19.4289 26.804 20.581 26.1603 21.5938 25.1084C21.8589 24.8331 26.4645 20.644 26.5536 20.264C26.5647 20.2164 26.5751 20.0393 26.4698 19.9457C26.3646 19.8522 26.2093 19.8842 26.0972 19.9096C25.9383 19.9457 23.4074 21.6184 18.5046 24.928C17.7863 25.4212 17.1356 25.6616 16.5526 25.649C15.9099 25.6351 14.6736 25.2856 13.7546 24.9869C12.6273 24.6204 11.7314 24.4267 11.8094 23.8044C11.8501 23.4803 12.2964 23.1488 13.1485 22.8099Z" fill="white"/>
<defs>
<linearGradient id="paint0_linear_14448_16034" x1="1" y1="23" x2="44.9464" y2="24.535" gradientUnits="userSpaceOnUse">
<stop stop-color="white" stop-opacity="0.1"/>
<stop offset="0.505" stop-color="white" stop-opacity="0.4"/>
<stop offset="1" stop-color="white" stop-opacity="0.1"/>
</linearGradient>
</defs>
</svg>
