<svg width="46" height="46" viewBox="0 0 46 46" fill="none" xmlns="http://www.w3.org/2000/svg">
<path d="M23 0.5C28.5459 0.5 31.43 0.495026 33.79 1.21094L34.2803 1.36816C39.3181 3.06945 43.2393 7.10145 44.7891 12.21L44.915 12.6592C45.5044 14.941 45.5 17.8005 45.5 23C45.5 28.1995 45.5044 31.059 44.915 33.3408L44.7891 33.79C43.2393 38.8985 39.3181 42.9306 34.2803 44.6318L33.79 44.7891C31.43 45.505 28.5459 45.5 23 45.5C17.8005 45.5 14.941 45.5044 12.6592 44.915L12.21 44.7891C7.10145 43.2393 3.06945 39.3181 1.36816 34.2803L1.21094 33.79C0.495026 31.43 0.5 28.5459 0.5 23C0.5 17.4541 0.495026 14.57 1.21094 12.21L1.36816 11.7197C3.06945 6.68185 7.10145 2.76074 12.21 1.21094L12.6592 1.08496C14.941 0.495566 17.8005 0.5 23 0.5Z" fill="#808080" fill-opacity="0.1" style="mix-blend-mode:luminosity"/>
<path d="M23 0.5C28.5459 0.5 31.43 0.495026 33.79 1.21094L34.2803 1.36816C39.3181 3.06945 43.2393 7.10145 44.7891 12.21L44.915 12.6592C45.5044 14.941 45.5 17.8005 45.5 23C45.5 28.1995 45.5044 31.059 44.915 33.3408L44.7891 33.79C43.2393 38.8985 39.3181 42.9306 34.2803 44.6318L33.79 44.7891C31.43 45.505 28.5459 45.5 23 45.5C17.8005 45.5 14.941 45.5044 12.6592 44.915L12.21 44.7891C7.10145 43.2393 3.06945 39.3181 1.36816 34.2803L1.21094 33.79C0.495026 31.43 0.5 28.5459 0.5 23C0.5 17.4541 0.495026 14.57 1.21094 12.21L1.36816 11.7197C3.06945 6.68185 7.10145 2.76074 12.21 1.21094L12.6592 1.08496C14.941 0.495566 17.8005 0.5 23 0.5Z" stroke="url(#paint0_linear_14448_16028)"/>
<path d="M24.4093 23.0071C24.4093 26.4573 21.6314 29.2544 18.2045 29.2544C14.7777 29.2544 12 26.4582 12 23.0071C12 19.5561 14.7779 16.76 18.2045 16.76C21.6312 16.76 24.4093 19.5569 24.4093 23.0071ZM31.216 23.0071C31.216 26.2551 29.8269 28.8878 28.1136 28.8878C26.4003 28.8878 25.0112 26.2542 25.0112 23.0071C25.0112 19.76 26.4003 17.1264 28.1136 17.1264C29.8269 17.1264 31.216 19.76 31.216 23.0071ZM34 23.0071C34 25.9171 33.5114 28.276 32.9088 28.276C32.3063 28.276 31.8177 25.9163 31.8177 23.0071C31.8177 20.0979 32.3063 17.7382 32.9091 17.7382C33.5118 17.7382 34 20.0973 34 23.0071Z" fill="white"/>
<defs>
<linearGradient id="paint0_linear_14448_16028" x1="1" y1="23" x2="44.9464" y2="24.535" gradientUnits="userSpaceOnUse">
<stop stop-color="white" stop-opacity="0.1"/>
<stop offset="0.505" stop-color="white" stop-opacity="0.4"/>
<stop offset="1" stop-color="white" stop-opacity="0.1"/>
</linearGradient>
</defs>
</svg>
